<svg width="20" height="21" viewBox="0 0 20 21" fill="none" xmlns="http://www.w3.org/2000/svg">
<path d="M5.5 2.16715C5.5 1.85774 5.38147 1.56099 5.17049 1.3422C4.95952 1.1234 4.67337 1.00049 4.375 1.00049H2.125C1.82663 1.00049 1.54048 1.1234 1.32951 1.3422C1.11853 1.56099 1 1.85774 1 2.16715V18.5005C1 18.8099 1.11853 19.1067 1.32951 19.3254C1.54048 19.5442 1.82663 19.6672 2.125 19.6672H4.375C4.67337 19.6672 4.95952 19.5442 5.17049 19.3254C5.38147 19.1067 5.5 18.8099 5.5 18.5005M5.5 2.16715V18.5005M5.5 2.16715C5.5 1.85774 5.61853 1.56099 5.8295 1.3422C6.04048 1.1234 6.32663 1.00049 6.625 1.00049H8.875C9.17337 1.00049 9.45952 1.1234 9.67049 1.3422C9.88147 1.56099 10 1.85774 10 2.16715V18.5005C10 18.8099 9.88147 19.1067 9.67049 19.3254C9.45952 19.5442 9.17337 19.6672 8.875 19.6672H6.625C6.32663 19.6672 6.04048 19.5442 5.8295 19.3254C5.61853 19.1067 5.5 18.8099 5.5 18.5005M1 5.66715H5.5M5.5 15.0005H10" stroke="#1500FB" stroke-width="2" stroke-linecap="round" stroke-linejoin="round"/>
<path d="M11.1251 6.83395L15.6251 5.66729M13.3751 15.0006L17.7885 13.8573M10.9035 1.65395L13.3605 1.03562C13.9927 0.878119 14.6351 1.25729 14.8027 1.88962L18.9596 17.544C19.0329 17.8305 19.0004 18.1352 18.8685 18.3983C18.7366 18.6613 18.5147 18.8638 18.2463 18.9661L18.0967 19.014L15.6397 19.6323C15.0075 19.7898 14.3651 19.4106 14.1975 18.7783L10.0406 3.12395C9.96725 2.83736 9.99973 2.5327 10.1317 2.26964C10.2636 2.00658 10.4855 1.80408 10.7538 1.70179L10.9035 1.65395Z" stroke="#1500FB" stroke-width="2" stroke-linecap="round" stroke-linejoin="round"/>
</svg>
