<svg width="237" height="238" viewBox="0 0 237 238" fill="none" xmlns="http://www.w3.org/2000/svg">
<path d="M18.1543 124.807L127.696 188.306C131.061 190.257 135.185 190.21 138.503 188.258L225.577 136.469C226.904 135.66 227.331 133.994 226.525 132.661C226.288 132.28 225.956 131.947 225.577 131.709C206.19 120.476 124.615 73.2564 111.39 65.7356C110.253 65.0692 108.878 65.0692 107.788 65.7356L18.1543 118.572C16.4479 119.571 15.8317 121.808 16.8271 123.522C17.1589 124.046 17.6329 124.522 18.1543 124.807Z" fill="#DAF2E9"/>
<path d="M83.3767 26.5132L92.7145 31.5112L67.2607 55.5968L44.7931 62.6416L37.3513 52.4552" fill="#FFE8BC"/>
<path d="M48.2533 57.5483L39.5791 52.5979L83.3767 26.5131L82.3339 25.8943L37.3513 52.4551V120.333L47.1631 125.902L50.9077 121.999" fill="#1371A5"/>
<path d="M92.7145 31.511L47.1631 58.167V125.902L93.4255 98.151L92.7145 31.511Z" fill="#0064FB"/>
<path d="M48.8696 53.7402L51.6662 55.5014V69.9242L53.42 67.687L54.6524 69.0674V53.7878L52.0454 51.8838L48.8696 53.7402Z" fill="#F26250"/>
<path d="M174.858 123.522L187.04 129.948L187.372 132.947L174.527 125.664" fill="#E27623"/>
<path d="M174.385 118.619L169.36 136.755L170.261 137.278C170.498 137.136 170.735 136.993 170.924 136.85C171.209 136.66 177.418 117.762 177.418 117.762" fill="#E27623"/>
<path d="M185.903 115.049L189.363 125.759L189.031 147.179L188.273 147.703L187.23 147.036L186.424 125.711L183.343 115.049" fill="#E27623"/>
<path d="M183.817 100.817L183.343 109.48L185.618 110.67L186.045 101.34" fill="#E27623"/>
<path d="M198.037 107.195L199.554 118.905L201.118 136.183L200.123 136.755L199.127 136.136L196.947 119.19L195.478 107.195" fill="#E27623"/>
<path d="M196.52 108.671C197.137 108.861 198.511 107.862 198.938 107.195C201.166 103.673 200.549 98.8176 196.52 96.5804C194.719 95.5808 192.871 94.5812 191.117 93.5816C189.553 92.6772 187.846 91.9156 186.377 90.916C186.187 90.7732 185.95 90.678 185.713 90.5828C184.86 90.3448 183.959 90.678 183.391 91.392" fill="#FDBA45"/>
<path d="M196.662 108.528C197.753 108.48 198.369 107.052 198.701 106.196C199.601 103.863 199.743 99.4363 197.089 98.1035C196.994 98.0559 196.899 97.9607 196.899 97.8655L191.828 94.9143L187.893 92.6295C187.23 92.2487 186.566 91.7727 185.855 91.3919C185.144 91.0111 184.481 90.5351 183.722 90.9635C182.964 91.3919 182.774 92.3915 182.632 93.2959C182.3 95.3427 182.395 97.3895 182.916 99.3887C183.39 100.626 184.338 101.674 185.523 102.292L189.173 104.387L195.904 108.29C195.999 108.338 196.141 108.433 196.236 108.433C196.473 108.528 196.568 108.528 196.662 108.528Z" fill="#FDBA45"/>
<path d="M197.421 117.905L197.611 118.048C198.179 118.333 198.701 118.714 199.127 119.19C200.17 120.475 199.175 121.951 198.132 122.855C195.383 125.283 191.212 127.33 187.514 126.425C184.291 125.569 181.21 124.188 178.414 122.379C176.091 120.951 173.2 119.285 172.583 116.382C172.346 115.097 172.773 113.764 173.674 112.812C179.504 106.005 187.751 112.383 193.534 115.715L197.421 117.905Z" fill="#E27623"/>
<path d="M197.421 116.239L197.611 116.382C198.179 116.667 198.701 117.048 199.127 117.524C200.17 118.809 199.175 120.285 198.132 121.189C195.383 123.617 191.212 125.664 187.514 124.759C184.291 123.903 181.21 122.522 178.414 120.713C176.091 119.285 173.2 117.619 172.583 114.716C172.346 113.431 172.773 112.098 173.674 111.146C179.504 104.339 187.751 110.717 193.534 114.049L197.421 116.239Z" fill="#FDBA45"/>
<path d="M53.5145 126.473C53.2775 126.473 51.3341 125.664 52.9931 124.426C54.0833 123.57 55.2209 122.76 56.4533 122.046" fill="#E27623"/>
<path d="M53.0405 114.05C52.6613 114.335 52.4243 114.764 52.3769 115.24C52.2821 116.049 53.1353 116.43 53.4671 116.62" fill="#FDBA45"/>
<path d="M48.8693 108.147C48.6323 108.147 46.6889 107.338 48.3479 106.1C49.4381 105.243 50.5757 104.434 51.8081 103.72" fill="#9A433A"/>
<path d="M48.3479 95.7234C47.9687 96.009 47.7317 96.4374 47.6843 96.9134C47.5895 97.7226 48.4427 98.1034 48.7745 98.2938" fill="#F26250"/>
<path d="M53.5144 116.001C53.5144 116.001 55.1734 122.141 53.5144 125.426L76.0294 138.706L98.3074 151.653V142.086" fill="#FFE8BC"/>
<path d="M52.7561 115.049C52.8035 115.477 52.8509 115.906 52.8983 116.334L98.2601 142.133V151.701L52.9457 125.14V126.283L100.014 153.653V140.61L52.7561 115.049Z" fill="#E27623"/>
<path d="M53.0405 115.239L99.8243 142.133L165.426 103.435L119.637 77.0642C118.215 76.255 116.509 76.255 115.087 77.1118L52.9931 114.049C52.6613 114.24 52.5665 114.668 52.7561 115.001C52.8509 115.097 52.9457 115.144 53.0405 115.239Z" fill="#FDBA45"/>
<path d="M100.061 153.605C100.061 153.605 165.663 114.811 165.426 114.621C165.189 114.43 165.426 103.387 165.426 103.387L99.8242 142.086L100.061 153.605Z" fill="#E27623"/>
<path d="M48.8694 97.675C48.8694 97.675 50.5284 103.815 48.8694 107.1L71.3844 120.38L93.6624 133.327V123.76" fill="#FFE8BC"/>
<path d="M48.1108 96.7231C48.1582 97.1515 48.2056 97.5799 48.253 98.0083L93.6148 123.808V133.375L48.3004 106.814V107.957L95.3686 135.327V122.284L48.1108 96.7231Z" fill="#9A433A"/>
<path d="M48.3478 96.9135L95.1316 123.807L160.733 85.1087L114.992 58.7383C113.57 57.9291 111.864 57.9291 110.442 58.7859L48.3478 95.7235C48.016 95.9139 47.9212 96.3423 48.1108 96.6755C48.1582 96.7707 48.253 96.8183 48.3478 96.9135Z" fill="#F26250"/>
<path d="M95.3686 135.279C95.3686 135.279 160.923 96.485 160.733 96.2946C160.544 96.1042 160.733 85.061 160.733 85.061L95.1316 123.76L95.3686 135.279Z" fill="#9A433A"/>
<path d="M87.4054 124.902L86.9314 133.566L89.2066 131.614L91.0078 136.088L91.7188 127.14L87.4054 124.902Z" fill="#F26250"/>
<path d="M130.303 164.173C129.923 164.173 129.497 164.125 129.118 164.03C126.274 163.411 124.046 161.079 123.524 158.175C123.43 157.223 123.43 154.51 123.477 152.415C123.477 151.416 124.33 150.559 125.373 150.607C125.657 150.607 125.942 150.702 126.179 150.797L135.469 156.033L135.327 156.652C135.327 156.652 135.185 157.175 134.9 159.032C134.711 160.222 134.142 162.316 132.53 163.411C131.867 163.887 131.108 164.125 130.303 164.173ZM125.326 152.273C125.278 152.273 125.231 152.273 125.231 152.32C125.183 152.368 125.136 152.415 125.136 152.511C125.089 155.414 125.089 157.366 125.183 158.032C125.657 160.222 127.316 161.935 129.497 162.459C130.208 162.649 131.014 162.554 131.63 162.173C132.767 161.412 133.194 159.603 133.289 158.889C133.431 157.985 133.526 157.366 133.621 156.985L125.42 152.368C125.373 152.273 125.373 152.273 125.326 152.273Z" fill="#E27623"/>
<path d="M143.575 171.455C143.195 171.455 142.769 171.408 142.39 171.312C139.546 170.646 137.318 168.361 136.796 165.458C136.702 164.696 136.702 162.935 136.749 160.079C136.749 159.317 137.128 158.651 137.744 158.222C138.218 157.937 138.787 157.889 139.261 158.175L148.741 163.363L148.599 163.982C148.599 163.982 148.457 164.506 148.172 166.362C147.983 167.552 147.414 169.646 145.802 170.741C145.139 171.17 144.38 171.408 143.575 171.455ZM138.598 159.65C138.455 159.746 138.408 159.936 138.408 160.079C138.361 163.506 138.408 164.791 138.455 165.267C138.929 167.457 140.588 169.17 142.769 169.694C143.48 169.932 144.286 169.789 144.902 169.408C146.039 168.647 146.466 166.838 146.561 166.124C146.703 165.22 146.798 164.601 146.893 164.22L138.598 159.65Z" fill="#E27623"/>
<path d="M148.267 164.458L147.461 163.03L159.359 156.128C160.354 155.557 161.492 155.414 162.582 155.7C163.435 156.033 164.146 156.699 164.431 157.556L162.914 158.222C162.772 157.794 162.44 157.461 162.013 157.27C161.35 157.128 160.686 157.223 160.117 157.556L148.267 164.458Z" fill="#E27623"/>
<path d="M125.563 152.177L124.757 150.749L136.654 143.8C137.65 143.229 138.787 143.086 139.877 143.371C140.731 143.705 141.442 144.371 141.726 145.228L140.209 145.894C140.067 145.466 139.735 145.133 139.309 144.942C138.645 144.799 137.981 144.895 137.413 145.228L125.563 152.177Z" fill="#E27623"/>
<path d="M134.985 155.773L134.192 157.237L138.564 159.625L139.357 158.162L134.985 155.773Z" fill="#E27623"/>
<path d="M127.506 120.047L129.734 118.952C129.734 118.952 129.924 117.001 129.118 116.572C128.312 116.144 127.506 120.047 127.506 120.047Z" fill="#196132"/>
<path d="M132.957 114.43C132.957 114.43 133.241 119.286 133.621 119.762C134 120.238 138.266 122.522 138.598 123.332C138.929 124.141 133.858 123.284 132.104 122.856C130.35 122.427 128.833 121.57 128.786 120.952C128.738 120.333 129.402 117.048 128.786 117.144C128.17 117.239 127.506 120.047 127.506 120.047L126.037 119.19L129.307 107.814" fill="#196132"/>
<path d="M137.65 115.192L139.877 114.097C139.877 114.097 140.067 112.146 139.261 111.717C138.455 111.289 137.65 115.192 137.65 115.192Z" fill="#196132"/>
<path d="M143.101 109.575C143.101 109.575 143.385 114.43 143.764 114.906C144.143 115.382 148.409 117.667 148.741 118.476C149.073 119.286 144.001 118.429 142.247 118C140.494 117.572 138.977 116.715 138.929 116.096C138.882 115.478 139.546 112.193 138.929 112.288C138.313 112.384 137.65 115.192 137.65 115.192L136.18 114.288L139.451 102.911" fill="#196132"/>
<path d="M126.463 73.2087C125.705 73.9703 123.856 84.5375 125.041 89.5831C126.226 94.6287 138.55 96.7707 138.55 96.7707L135.659 109.67C135.659 109.67 140.351 113.24 144.854 111.765C146.466 111.241 150.163 92.6771 148.741 90.1067C147.319 87.5363 130.871 78.5875 130.871 78.5875" fill="#FFE8BC"/>
<path d="M116.794 77.0645C115.988 77.8261 113.76 83.7761 116.794 91.0589C118.784 95.8665 129.734 99.2461 129.734 99.2461L125.989 113.574C125.989 113.574 130.871 117.667 135.185 115.668C139.498 113.669 140.683 96.1045 139.261 93.5341C137.839 90.9637 123.619 81.8721 123.619 81.8721" fill="#FFE8BC"/>
<path d="M120.681 62.8795C120.681 62.8795 112.575 66.2591 114.85 77.8259C116.462 85.9655 124.473 86.8699 124.473 86.8699C124.473 86.8699 129.734 83.5379 129.165 82.4431L122.008 78.6827L130.113 74.5891L135.943 80.7295L140.115 77.4451C140.115 77.4451 134.095 67.9727 131.488 64.0219C128.881 60.0711 120.681 62.8795 120.681 62.8795Z" fill="#E27623"/>
<path d="M131.203 82.4908L129.781 81.3484C129.781 81.3484 132.957 78.4448 137.318 78.8256C138.455 77.0644 140.162 75.7316 142.2 75.0652L144.001 76.3504" fill="#FFE8BC"/>
<path d="M131.203 82.4907L130.018 90.3447L131.203 91.0587C131.203 91.0587 143.338 84.3471 143.243 84.2043C143.148 84.0615 143.954 76.3503 143.954 76.3503" fill="#0064FB"/>
<path d="M143.053 75.7317L131.156 82.4909L132.294 83.1097L143.954 76.3505L143.053 75.7317Z" fill="#1371A5"/>
<path d="M132.72 83.5856C132.815 83.2524 132.578 82.8716 132.246 82.7764C132.151 82.7288 132.009 82.7288 131.914 82.7764C130.966 83.1096 130.018 83.2524 129.023 83.2524C128.928 83.2524 128.833 83.2524 128.738 83.3C127.79 84.252 126.795 85.0612 125.657 85.7752L125.989 85.918C126.416 86.7748 126.937 87.6316 127.506 88.3932C127.79 88.774 128.17 88.9644 128.644 89.012C128.786 89.1072 128.975 89.2024 129.118 89.2976C129.592 89.5832 130.208 89.488 130.587 89.1548C130.729 89.25 130.919 89.2976 131.108 89.25C131.345 89.3928 131.63 89.3452 131.819 89.2024C132.436 88.8216 132.625 88.06 132.293 87.4412C132.72 86.9652 132.72 86.2036 132.341 85.7276C132.056 85.3468 131.725 85.0136 131.345 84.728C132.009 84.6328 132.53 84.2044 132.72 83.5856Z" fill="#FDBA45"/>
<path d="M144.38 80.8247C144.428 80.7295 144.523 80.5867 144.57 80.4915C144.76 80.2059 144.665 79.8727 144.428 79.6823C144.38 79.6347 144.333 79.6347 144.286 79.6347L144.191 79.5395C144.333 79.2539 144.191 78.8731 143.954 78.7303C143.764 78.6351 143.527 78.6351 143.338 78.7303C143.29 78.7303 143.243 78.7779 143.195 78.7779C142.721 79.0635 142.39 79.4919 142.2 80.0155C142.105 80.3011 142.247 80.5867 142.484 80.7295C142.579 80.7771 142.627 80.7771 142.721 80.7771C142.484 81.0627 142.295 81.3959 142.153 81.7291C142.058 82.0623 142.247 82.4431 142.627 82.5383C142.721 82.5383 142.816 82.5859 142.864 82.5383L142.769 82.6811C142.39 83.1571 143.006 83.7759 143.48 83.6331C143.812 83.5379 144.143 83.2523 144.286 82.9191C144.475 82.5383 144.712 82.1575 144.902 81.7767C145.044 81.4435 144.949 81.0627 144.617 80.8723C144.523 80.8247 144.475 80.8247 144.38 80.8247Z" fill="#FDBA45"/>
<path d="M130.35 71.5903C130.35 71.5903 130.54 78.9207 130.113 79.7299C129.686 80.5391 121.96 83.8235 121.96 83.8235L117.22 77.7783L130.35 71.5903Z" fill="#E27623"/>
<path d="M126.416 59.0715C126.416 59.0715 127.791 62.0703 127.269 63.1175C126.748 64.1647 123.904 63.4507 123.904 63.4507" fill="#196132"/>
<path d="M126.653 57.5484C126.653 57.5484 126.748 63.5936 124.283 64.2124C121.818 64.8312 120.491 61.8324 120.491 61.8324C120.491 61.8324 119.969 57.7388 120.775 56.882C121.581 56.0728 125.373 55.8348 126.653 57.5484Z" fill="#FDBA45"/>
<path d="M127.601 56.882C127.601 56.882 125.942 59.262 124.947 59.8808C123.951 60.4996 122.861 60.1188 122.529 60.9756C122.197 61.7848 123.43 66.64 122.292 67.5444C121.155 68.4488 118.974 65.8308 117.979 67.116C116.983 68.4012 117.552 70.7812 115.988 71.3048C114.424 71.8284 112.67 69.4484 114.139 67.5444C115.609 65.6404 115.751 64.736 114.898 64.1172C113.665 63.2128 114.945 59.7856 116.367 59.1192C117.789 58.4528 118.216 55.1684 120.823 54.3592C123.477 53.55 127.032 54.978 127.601 56.882Z" fill="#196132"/>
<path d="M129.734 69.258C129.734 72.6376 129.686 76.0172 129.544 79.4444C129.544 79.5872 129.686 79.73 129.829 79.73C129.971 79.73 130.113 79.5872 130.113 79.4444C130.255 76.0648 130.303 72.6852 130.303 69.258C130.303 69.1152 130.208 68.9248 130.066 68.9248C129.923 68.9248 129.734 69.02 129.734 69.1628C129.734 69.2104 129.734 69.258 129.734 69.258Z" fill="#9A433A"/>
<path d="M128.976 82.1576C125.089 80.3964 122.245 76.874 121.344 72.6852C121.249 72.3044 120.68 72.4472 120.728 72.828C121.676 77.1596 124.615 80.8248 128.644 82.6812C129.07 82.824 129.355 82.348 128.976 82.1576Z" fill="#9A433A"/>
</svg>
