<svg width="21" height="21" viewBox="0 0 21 21" fill="none" xmlns="http://www.w3.org/2000/svg">
<path d="M5.625 2.27812C5.625 1.9687 5.50647 1.67195 5.29549 1.45316C5.08452 1.23437 4.79837 1.11145 4.5 1.11145H2.25C1.95163 1.11145 1.66548 1.23437 1.45451 1.45316C1.24353 1.67195 1.125 1.9687 1.125 2.27812V18.6114C1.125 18.9209 1.24353 19.2176 1.45451 19.4364C1.66548 19.6552 1.95163 19.7781 2.25 19.7781H4.5C4.79837 19.7781 5.08452 19.6552 5.29549 19.4364C5.50647 19.2176 5.625 18.9209 5.625 18.6114M5.625 2.27812V18.6114M5.625 2.27812C5.625 1.9687 5.74353 1.67195 5.9545 1.45316C6.16548 1.23437 6.45163 1.11145 6.75 1.11145H9C9.29837 1.11145 9.58452 1.23437 9.79549 1.45316C10.0065 1.67195 10.125 1.9687 10.125 2.27812V18.6114C10.125 18.9209 10.0065 19.2176 9.79549 19.4364C9.58452 19.6552 9.29837 19.7781 9 19.7781H6.75C6.45163 19.7781 6.16548 19.6552 5.9545 19.4364C5.74353 19.2176 5.625 18.9209 5.625 18.6114M1.125 5.77812H5.625M5.625 15.1114H10.125" stroke="#1500FB" stroke-width="2" stroke-linecap="round" stroke-linejoin="round"/>
<path d="M11.25 6.94488L15.75 5.77822M13.5 15.1115L17.9134 13.9682M11.0284 1.76488L13.4854 1.14655C14.1176 0.989051 14.76 1.36822 14.9276 2.00055L19.0845 17.6549C19.1578 17.9415 19.1254 18.2461 18.9934 18.5092C18.8615 18.7723 18.6396 18.9748 18.3712 19.077L18.2216 19.1249L15.7646 19.7432C15.1324 19.9007 14.49 19.5216 14.3224 18.8892L10.1655 3.23488C10.0922 2.94829 10.1246 2.64363 10.2566 2.38057C10.3885 2.11751 10.6104 1.91501 10.8787 1.81272L11.0284 1.76488Z" stroke="#1500FB" stroke-width="2" stroke-linecap="round" stroke-linejoin="round"/>
</svg>
