<svg width="35" height="35" viewBox="0 0 35 35" fill="none" xmlns="http://www.w3.org/2000/svg">
<path d="M19.0158 14.8563C19.8763 13.6539 20.339 12.2124 20.339 10.7338C20.339 9.25518 19.8763 7.81365 19.0158 6.61128C19.8215 6.06236 20.7749 5.77091 21.7499 5.77544C23.065 5.77544 24.3261 6.29784 25.256 7.22771C26.1859 8.15757 26.7083 9.41874 26.7083 10.7338C26.7083 12.0488 26.1859 13.31 25.256 14.2398C24.3261 15.1697 23.065 15.6921 21.7499 15.6921C20.7749 15.6966 19.8215 15.4052 19.0158 14.8563ZM8.29159 10.7338C8.29159 9.75311 8.58239 8.79447 9.12722 7.97907C9.67204 7.16368 10.4464 6.52816 11.3524 6.15287C12.2585 5.77759 13.2554 5.6794 14.2172 5.87072C15.1791 6.06203 16.0626 6.53427 16.756 7.22771C17.4494 7.92114 17.9217 8.80463 18.113 9.76645C18.3043 10.7283 18.2061 11.7252 17.8308 12.6312C17.4555 13.5373 16.82 14.3117 16.0046 14.8565C15.1892 15.4013 14.2306 15.6921 13.2499 15.6921C11.9349 15.6921 10.6737 15.1697 9.74385 14.2398C8.81398 13.31 8.29159 12.0488 8.29159 10.7338ZM11.1249 10.7338C11.1249 11.1541 11.2495 11.5649 11.483 11.9144C11.7165 12.2638 12.0484 12.5362 12.4367 12.697C12.825 12.8579 13.2523 12.8999 13.6645 12.8179C14.0767 12.736 14.4553 12.5336 14.7525 12.2364C15.0497 11.9392 15.2521 11.5606 15.3341 11.1483C15.4161 10.7361 15.374 10.3089 15.2132 9.92057C15.0523 9.53228 14.78 9.2004 14.4305 8.9669C14.0811 8.73341 13.6702 8.60878 13.2499 8.60878C12.6863 8.60878 12.1458 8.83266 11.7473 9.23117C11.3488 9.62969 11.1249 10.1702 11.1249 10.7338ZM23.1666 24.1921V27.0254H3.33325V24.1921C3.33325 24.1921 3.33325 18.5254 13.2499 18.5254C23.1666 18.5254 23.1666 24.1921 23.1666 24.1921ZM20.3333 24.1921C20.1349 23.0871 18.4491 21.3588 13.2499 21.3588C8.05075 21.3588 6.26575 23.2146 6.16659 24.1921M23.0958 18.5254C23.964 19.2008 24.674 20.0581 25.1757 21.037C25.6774 22.016 25.9587 23.0929 25.9999 24.1921V27.0254H31.6666V24.1921C31.6666 24.1921 31.6666 19.0496 23.0816 18.5254H23.0958Z" fill="#1500FB"/>
</svg>
