<svg width="26" height="19" viewBox="0 0 26 19" fill="none" xmlns="http://www.w3.org/2000/svg">
<path d="M14.216 7.891C14.9591 6.85276 15.3586 5.60801 15.3586 4.33126C15.3586 3.05451 14.9591 1.80976 14.216 0.771523C14.9118 0.297541 15.735 0.0458728 16.5769 0.0497887C17.7124 0.0497887 18.8015 0.500871 19.6044 1.3038C20.4073 2.10674 20.8584 3.19574 20.8584 4.33126C20.8584 5.46678 20.4073 6.55579 19.6044 7.35872C18.8015 8.16165 17.7124 8.61273 16.5769 8.61273C15.735 8.61665 14.9118 8.36498 14.216 7.891ZM4.95579 4.33126C4.95579 3.48447 5.20689 2.65669 5.67735 1.9526C6.1478 1.24852 6.81648 0.699751 7.59881 0.375697C8.38115 0.0516421 9.24201 -0.0331454 10.0725 0.132056C10.9031 0.297258 11.6659 0.705029 12.2647 1.3038C12.8635 1.90258 13.2713 2.66546 13.4365 3.49599C13.6017 4.32651 13.5169 5.18737 13.1928 5.96971C12.8688 6.75205 12.32 7.42072 11.6159 7.89118C10.9118 8.36163 10.0841 8.61273 9.23726 8.61273C8.10175 8.61273 7.01274 8.16165 6.2098 7.35872C5.40687 6.55579 4.95579 5.46678 4.95579 4.33126ZM7.40235 4.33126C7.40235 4.69417 7.50996 5.04894 7.71159 5.35069C7.91321 5.65244 8.19978 5.88762 8.53507 6.0265C8.87036 6.16538 9.2393 6.20172 9.59524 6.13092C9.95118 6.06012 10.2781 5.88536 10.5347 5.62874C10.7914 5.37213 10.9661 5.04518 11.0369 4.68924C11.1077 4.3333 11.0714 3.96436 10.9325 3.62907C10.7936 3.29378 10.5584 3.00721 10.2567 2.80558C9.95494 2.60396 9.60017 2.49634 9.23726 2.49634C8.75061 2.49634 8.28389 2.68967 7.93978 3.03378C7.59567 3.37789 7.40235 3.84461 7.40235 4.33126ZM17.8002 15.9524V18.399H0.674316V15.9524C0.674316 15.9524 0.674316 11.0593 9.23726 11.0593C17.8002 11.0593 17.8002 15.9524 17.8002 15.9524ZM15.3537 15.9524C15.1824 14.9982 13.7267 13.5058 9.23726 13.5058C4.74783 13.5058 3.2065 15.1083 3.12087 15.9524M17.739 11.0593C18.4888 11.6425 19.1018 12.3827 19.535 13.228C19.9683 14.0733 20.2112 15.0032 20.2468 15.9524V18.399H25.1399V15.9524C25.1399 15.9524 25.1399 11.5119 17.7268 11.0593H17.739Z" fill="#1500FB"/>
</svg>
