<svg width="19" height="21" viewBox="0 0 19 21" fill="none" xmlns="http://www.w3.org/2000/svg">
<path d="M12.1042 16.4449C11.375 16.4449 10.7587 16.2032 10.2552 15.7199C9.75174 15.2366 9.5 14.6449 9.5 13.9449C9.5 13.2449 9.75174 12.6532 10.2552 12.1699C10.7587 11.6866 11.375 11.4449 12.1042 11.4449C12.8333 11.4449 13.4497 11.6866 13.9531 12.1699C14.4566 12.6532 14.7083 13.2449 14.7083 13.9449C14.7083 14.6449 14.4566 15.2366 13.9531 15.7199C13.4497 16.2032 12.8333 16.4449 12.1042 16.4449ZM2.20833 20.4449C1.63542 20.4449 1.14514 20.2492 0.7375 19.8579C0.329861 19.4666 0.125694 18.9956 0.125 18.4449V4.44489C0.125 3.89489 0.329167 3.42422 0.7375 3.03289C1.14583 2.64155 1.63611 2.44555 2.20833 2.44489H3.25V0.444885H5.33333V2.44489H13.6667V0.444885H15.75V2.44489H16.7917C17.3646 2.44489 17.8552 2.64089 18.2635 3.03289C18.6719 3.42489 18.8757 3.89555 18.875 4.44489V18.4449C18.875 18.9949 18.6712 19.4659 18.2635 19.8579C17.8559 20.2499 17.3653 20.4456 16.7917 20.4449H2.20833ZM2.20833 18.4449H16.7917V8.44489H2.20833V18.4449ZM2.20833 6.44489H16.7917V4.44489H2.20833V6.44489Z" fill="#1500FB"/>
</svg>
