<svg width="19" height="20" viewBox="0 0 19 20" fill="none" xmlns="http://www.w3.org/2000/svg">
<path d="M11.9792 16C11.25 16 10.6337 15.7583 10.1302 15.275C9.62674 14.7917 9.375 14.2 9.375 13.5C9.375 12.8 9.62674 12.2083 10.1302 11.725C10.6337 11.2417 11.25 11 11.9792 11C12.7083 11 13.3247 11.2417 13.8281 11.725C14.3316 12.2083 14.5833 12.8 14.5833 13.5C14.5833 14.2 14.3316 14.7917 13.8281 15.275C13.3247 15.7583 12.7083 16 11.9792 16ZM2.08333 20C1.51042 20 1.02014 19.8043 0.6125 19.413C0.204861 19.0217 0.000694444 18.5507 0 18V4C0 3.45 0.204167 2.97933 0.6125 2.588C1.02083 2.19667 1.51111 2.00067 2.08333 2H3.125V0H5.20833V2H13.5417V0H15.625V2H16.6667C17.2396 2 17.7302 2.196 18.1385 2.588C18.5469 2.98 18.7507 3.45067 18.75 4V18C18.75 18.55 18.5462 19.021 18.1385 19.413C17.7309 19.805 17.2403 20.0007 16.6667 20H2.08333ZM2.08333 18H16.6667V8H2.08333V18ZM2.08333 6H16.6667V4H2.08333V6Z" fill="#1500FB"/>
</svg>
