<svg width="20" height="24" viewBox="0 0 20 24" fill="none" xmlns="http://www.w3.org/2000/svg">
<path d="M3.28037 22.3078C1.93118 22.3078 0.837402 21.1854 0.837402 19.7996V9.71848C0.837402 8.95685 1.17527 8.2353 1.75366 7.75999L8.47324 2.24184C8.90257 1.88632 9.44252 1.69177 9.99995 1.69177C10.5574 1.69177 11.0973 1.88632 11.5267 2.24184L18.2451 7.75999C18.8246 8.2353 19.1625 8.95685 19.1625 9.71848V19.7996C19.1625 21.1854 18.0687 22.3078 16.7195 22.3078H3.28037Z" stroke="#1500FB" stroke-width="1.5" stroke-linecap="round" stroke-linejoin="round"/>
<path d="M7.13672 22.3078V16.0085C7.13672 15.401 7.37805 14.8184 7.80763 14.3888C8.23721 13.9592 8.81984 13.7179 9.42736 13.7179H10.5727C11.1802 13.7179 11.7628 13.9592 12.1924 14.3888C12.622 14.8184 12.8633 15.401 12.8633 16.0085V22.3078" stroke="#1500FB" stroke-width="1.5" stroke-linecap="round" stroke-linejoin="round"/>
</svg>
