<svg width="21" height="23" viewBox="0 0 21 23" fill="none" xmlns="http://www.w3.org/2000/svg">
<path d="M3.78043 21.7527C2.43124 21.7527 1.33746 20.6303 1.33746 19.2445V9.1634C1.33746 8.40176 1.67533 7.68021 2.25372 7.2049L8.9733 1.68676C9.40264 1.33123 9.94259 1.13669 10.5 1.13669C11.0574 1.13669 11.5974 1.33123 12.0267 1.68676L18.7452 7.2049C19.3247 7.68021 19.6626 8.40176 19.6626 9.1634V19.2445C19.6626 20.6303 18.5688 21.7527 17.2196 21.7527H3.78043Z" stroke="#1500FB" stroke-width="1.5" stroke-linecap="round" stroke-linejoin="round"/>
<path d="M7.63672 21.7527V15.4535C7.63672 14.846 7.87805 14.2633 8.30763 13.8338C8.73721 13.4042 9.31984 13.1628 9.92736 13.1628H11.0727C11.6802 13.1628 12.2628 13.4042 12.6924 13.8338C13.122 14.2633 13.3633 14.846 13.3633 15.4535V21.7527" stroke="#1500FB" stroke-width="1.5" stroke-linecap="round" stroke-linejoin="round"/>
</svg>
