<svg width="22" height="24" viewBox="0 0 22 24" fill="none" xmlns="http://www.w3.org/2000/svg">
<g clip-path="url(#clip0_96_298)">
<path d="M2.42773 8.30701C2.08398 7.94763 1.82259 7.53959 1.64355 7.08289C1.46452 6.62618 1.375 6.14701 1.375 5.64539C1.375 5.11381 1.4681 4.62341 1.6543 4.17419C1.84049 3.72498 2.09473 3.33191 2.41699 2.995C2.73926 2.65808 3.1224 2.39604 3.56641 2.20886C4.01042 2.02169 4.47949 1.92436 4.97363 1.91687C5.44629 1.91687 5.90462 2.00297 6.34863 2.17517C6.79264 2.34737 7.18652 2.61316 7.53027 2.97253L11.3223 6.93689L10.3447 7.95886L8.25 5.76892L5.10254 9.05945L7.19727 11.2494L6.21973 12.2714L2.42773 8.30701ZM4.98438 3.33191C4.67643 3.33191 4.38639 3.38806 4.11426 3.50037C3.84212 3.61267 3.60579 3.77738 3.40527 3.99451C3.20475 4.21163 3.0472 4.45496 2.93262 4.72449C2.81803 4.99402 2.75716 5.30098 2.75 5.64539C2.75 5.92989 2.78581 6.17696 2.85742 6.3866C2.92904 6.59623 3.03288 6.79464 3.16895 6.98181C3.30501 7.16899 3.45182 7.34493 3.60938 7.50964C3.76693 7.67436 3.9388 7.8503 4.125 8.03748L7.27246 4.74695C7.08626 4.55977 6.91797 4.38009 6.76758 4.20789C6.61719 4.03569 6.45247 3.88595 6.27344 3.75867C6.0944 3.63139 5.9082 3.52657 5.71484 3.44421C5.52148 3.36186 5.27799 3.32442 4.98438 3.33191ZM22 23.4344L15.2002 21.66L12.0527 18.3695L13.0303 17.3475L15.3613 19.7958C15.4759 19.4065 15.6335 19.0396 15.834 18.6952C16.0345 18.3508 16.2744 18.0326 16.5537 17.7406C16.833 17.4486 17.1338 17.2015 17.4561 16.9994C17.7783 16.7972 18.1328 16.6288 18.5195 16.494L16.1777 14.057L17.1553 13.035L20.3027 16.3256L22 23.4344ZM20.1094 21.4579L19.2285 17.7631C18.8919 17.8379 18.5804 17.9577 18.2939 18.1224C18.0075 18.2871 17.7461 18.493 17.5098 18.7401C17.2734 18.9872 17.0765 19.2605 16.9189 19.5599C16.7614 19.8594 16.6468 20.1851 16.5752 20.537L20.1094 21.4579ZM18.5625 2.5907C18.9421 2.5907 19.2965 2.66557 19.626 2.81531C19.9554 2.96505 20.249 3.17094 20.5068 3.43298C20.7646 3.69503 20.9616 3.99825 21.0977 4.34265C21.2337 4.68705 21.3053 5.0614 21.3125 5.4657C21.3125 5.84753 21.2445 6.2144 21.1084 6.56628C20.9723 6.91817 20.7718 7.22888 20.5068 7.49841L8.19629 20.3685C8.13184 20.8103 7.99935 21.2146 7.79883 21.5814C7.59831 21.9483 7.34766 22.274 7.04688 22.5585C6.74609 22.843 6.40592 23.0564 6.02637 23.1986C5.64681 23.3409 5.24219 23.4195 4.8125 23.4344H0V21.9969C0.078776 21.9969 0.161133 21.9857 0.24707 21.9633C0.333008 21.9408 0.411784 21.9071 0.483398 21.8622C0.662435 21.7649 0.809245 21.6413 0.923828 21.4916C1.03841 21.3418 1.12793 21.1771 1.19238 20.9974C1.25684 20.8177 1.30339 20.6306 1.33203 20.4359C1.36068 20.2413 1.375 20.0428 1.375 19.8407C1.375 19.399 1.44661 18.9797 1.58984 18.5829C1.73307 18.1861 1.94076 17.8267 2.21289 17.5048C2.48503 17.1828 2.79297 16.9208 3.13672 16.7186C3.48047 16.5165 3.87077 16.378 4.30762 16.3031L16.6182 3.43298C16.876 3.16345 17.1732 2.95756 17.5098 2.81531C17.8464 2.67305 18.1973 2.59819 18.5625 2.5907ZM4.8125 21.9969C5.09896 21.9969 5.36751 21.9408 5.61816 21.8285C5.86881 21.7162 6.08724 21.5627 6.27344 21.368C6.45964 21.1734 6.60645 20.945 6.71387 20.683C6.82129 20.4209 6.875 20.1402 6.875 19.8407C6.875 19.5412 6.82129 19.2605 6.71387 18.9984C6.60645 18.7364 6.45964 18.508 6.27344 18.3134C6.08724 18.1187 5.86881 17.9652 5.61816 17.8529C5.36751 17.7406 5.09896 17.6844 4.8125 17.6844C4.52604 17.6844 4.25749 17.7406 4.00684 17.8529C3.75618 17.9652 3.53776 18.1187 3.35156 18.3134C3.16536 18.508 3.01855 18.7364 2.91113 18.9984C2.80371 19.2605 2.75 19.5412 2.75 19.8407C2.75 20.6193 2.52083 21.3381 2.0625 21.9969H4.8125ZM10.377 16.056C10.1478 15.5844 9.87923 15.1875 9.57129 14.8656C9.26335 14.5437 8.88379 14.2629 8.43262 14.0233L6.05859 16.5052C6.5026 16.6849 6.8929 16.9507 7.22949 17.3026C7.56608 17.6545 7.82389 18.0663 8.00293 18.538L10.377 16.056ZM19.5293 6.47644C19.7943 6.19942 19.9268 5.86251 19.9268 5.4657C19.9268 5.27104 19.891 5.08761 19.8193 4.91541C19.7477 4.7432 19.651 4.59347 19.5293 4.46619C19.4076 4.33891 19.2607 4.23409 19.0889 4.15173C18.917 4.06938 18.7415 4.03194 18.5625 4.03943C18.1829 4.03943 17.8607 4.17794 17.5957 4.45496L9.44238 12.9677C9.87923 13.2372 10.248 13.5292 10.5488 13.8436C10.8496 14.1581 11.1289 14.5437 11.3867 15.0004L19.5293 6.47644Z" fill="#1500FB"/>
</g>
<defs>
<clipPath id="clip0_96_298">
<rect width="22" height="23" fill="white" transform="translate(0 0.434448)"/>
</clipPath>
</defs>
</svg>
