<svg width="34" height="34" viewBox="0 0 34 34" fill="none" xmlns="http://www.w3.org/2000/svg">
<path d="M6.08984 11.335C5.65234 10.8662 5.31966 10.334 5.0918 9.73828C4.86393 9.14258 4.75 8.51758 4.75 7.86328C4.75 7.16992 4.86849 6.53027 5.10547 5.94434C5.34245 5.3584 5.66602 4.8457 6.07617 4.40625C6.48633 3.9668 6.97396 3.625 7.53906 3.38086C8.10417 3.13672 8.70117 3.00977 9.33008 3C9.93164 3 10.515 3.1123 11.0801 3.33691C11.6452 3.56152 12.1465 3.9082 12.584 4.37695L17.4102 9.54785L16.166 10.8809L13.5 8.02441L9.49414 12.3164L12.1602 15.1729L10.916 16.5059L6.08984 11.335ZM9.34375 4.8457C8.95182 4.8457 8.58268 4.91895 8.23633 5.06543C7.88997 5.21191 7.58919 5.42676 7.33398 5.70996C7.07878 5.99316 6.87826 6.31055 6.73242 6.66211C6.58659 7.01367 6.50911 7.41406 6.5 7.86328C6.5 8.23438 6.54557 8.55664 6.63672 8.83008C6.72786 9.10352 6.86003 9.3623 7.0332 9.60645C7.20638 9.85059 7.39323 10.0801 7.59375 10.2949C7.79427 10.5098 8.01302 10.7393 8.25 10.9834L12.2559 6.69141C12.0189 6.44727 11.8047 6.21289 11.6133 5.98828C11.4219 5.76367 11.2122 5.56836 10.9844 5.40234C10.7565 5.23633 10.5195 5.09961 10.2734 4.99219C10.0273 4.88477 9.71745 4.83594 9.34375 4.8457ZM31 31.0664L22.3457 28.752L18.3398 24.46L19.584 23.127L22.5508 26.3203C22.6966 25.8125 22.8971 25.334 23.1523 24.8848C23.4076 24.4355 23.7129 24.0205 24.0684 23.6396C24.4238 23.2588 24.8066 22.9365 25.2168 22.6729C25.627 22.4092 26.0781 22.1895 26.5703 22.0137L23.5898 18.835L24.834 17.502L28.8398 21.7939L31 31.0664ZM28.5938 28.4883L27.4727 23.6689C27.0443 23.7666 26.6478 23.9229 26.2832 24.1377C25.9186 24.3525 25.5859 24.6211 25.2852 24.9434C24.9844 25.2656 24.7337 25.6221 24.5332 26.0127C24.3327 26.4033 24.1868 26.8281 24.0957 27.2871L28.5938 28.4883ZM26.625 3.87891C27.1081 3.87891 27.5592 3.97656 27.9785 4.17188C28.3978 4.36719 28.7715 4.63574 29.0996 4.97754C29.4277 5.31934 29.6784 5.71484 29.8516 6.16406C30.0247 6.61328 30.1159 7.10156 30.125 7.62891C30.125 8.12695 30.0384 8.60547 29.8652 9.06445C29.6921 9.52344 29.4368 9.92871 29.0996 10.2803L13.4316 27.0674C13.3496 27.6436 13.181 28.1709 12.9258 28.6494C12.6706 29.1279 12.3516 29.5527 11.9688 29.9238C11.5859 30.2949 11.153 30.5732 10.6699 30.7588C10.1868 30.9443 9.67188 31.0469 9.125 31.0664H3V29.1914C3.10026 29.1914 3.20508 29.1768 3.31445 29.1475C3.42383 29.1182 3.52409 29.0742 3.61523 29.0156C3.8431 28.8887 4.02995 28.7275 4.17578 28.5322C4.32161 28.3369 4.43555 28.1221 4.51758 27.8877C4.59961 27.6533 4.65885 27.4092 4.69531 27.1553C4.73177 26.9014 4.75 26.6426 4.75 26.3789C4.75 25.8027 4.84115 25.2559 5.02344 24.7383C5.20573 24.2207 5.47005 23.752 5.81641 23.332C6.16276 22.9121 6.55469 22.5703 6.99219 22.3066C7.42969 22.043 7.92643 21.8623 8.48242 21.7646L24.1504 4.97754C24.4785 4.62598 24.8568 4.35742 25.2852 4.17188C25.7135 3.98633 26.1602 3.88867 26.625 3.87891ZM9.125 29.1914C9.48958 29.1914 9.83138 29.1182 10.1504 28.9717C10.4694 28.8252 10.7474 28.625 10.9844 28.3711C11.2214 28.1172 11.4082 27.8193 11.5449 27.4775C11.6816 27.1357 11.75 26.7695 11.75 26.3789C11.75 25.9883 11.6816 25.6221 11.5449 25.2803C11.4082 24.9385 11.2214 24.6406 10.9844 24.3867C10.7474 24.1328 10.4694 23.9326 10.1504 23.7861C9.83138 23.6396 9.48958 23.5664 9.125 23.5664C8.76042 23.5664 8.41862 23.6396 8.09961 23.7861C7.7806 23.9326 7.5026 24.1328 7.26562 24.3867C7.02865 24.6406 6.8418 24.9385 6.70508 25.2803C6.56836 25.6221 6.5 25.9883 6.5 26.3789C6.5 27.3945 6.20833 28.332 5.625 29.1914H9.125ZM16.207 21.4424C15.9154 20.8271 15.5736 20.3096 15.1816 19.8896C14.7897 19.4697 14.3066 19.1035 13.7324 18.791L10.7109 22.0283C11.276 22.2627 11.7728 22.6094 12.2012 23.0684C12.6296 23.5273 12.9577 24.0645 13.1855 24.6797L16.207 21.4424ZM27.8555 8.94727C28.1927 8.58594 28.3613 8.14648 28.3613 7.62891C28.3613 7.375 28.3158 7.13574 28.2246 6.91113C28.1335 6.68652 28.0104 6.49121 27.8555 6.3252C27.7005 6.15918 27.5137 6.02246 27.2949 5.91504C27.0762 5.80762 26.8529 5.75879 26.625 5.76855C26.1419 5.76855 25.7318 5.94922 25.3945 6.31055L15.0176 17.4141C15.5736 17.7656 16.043 18.1465 16.4258 18.5566C16.8086 18.9668 17.1641 19.4697 17.4922 20.0654L27.8555 8.94727Z" fill="#1500FB"/>
</svg>
